<?xml version="1.0" standalone="no"?>
<!DOCTYPE svg PUBLIC "-//W3C//DTD SVG 1.1//EN" "http://www.w3.org/Graphics/SVG/1.1/DTD/svg11.dtd" >
<svg xmlns="http://www.w3.org/2000/svg">
<metadata></metadata>
<defs>
<font id="suzukiproboldregular" horiz-adv-x="1105" >
<font-face units-per-em="2048" ascent="1634" descent="-414" />
<missing-glyph horiz-adv-x="593" />
<glyph unicode="&#xfb01;" horiz-adv-x="1294" d="M31 901v205h164v41q0 197 117.5 288t328.5 91q55 0 101 -2t93.5 -8.5t98.5 -14.5t113 -20v-209q-92 18 -178.5 32.5t-184.5 14.5q-119 0 -161 -37t-42 -123v-53h670v-1106h-287v901h-383v-901h-286v901h-164z" />
<glyph unicode="&#xfb02;" horiz-adv-x="1294" d="M31 901v205h164v41q0 96 31.5 167.5t88 119t135 70t171.5 22.5q74 0 139 -4t128.5 -11.5t127 -16.5t135.5 -19v-1475h-287v1305q-23 2 -50.5 5t-54 5t-49 3t-34.5 1q-100 0 -147.5 -37t-47.5 -123v-53h199v-205h-199v-901h-286v901h-164z" />
<glyph unicode="&#xfb03;" horiz-adv-x="1961" d="M31 901v205h164v20q0 96 31.5 168t88 119t135 69.5t171.5 22.5q55 0 102 -2t92 -8t93 -15.5t106 -23.5q106 70 295 70q55 0 101 -2t93 -8.5t98.5 -14.5t112.5 -20v-209q-92 18 -178 32.5t-184 14.5q-119 0 -161 -37t-42 -123v-53h670v-1106h-287v901h-383v-901h-287v901 h-381v-901h-286v901h-164zM481 1106h381v41q0 74 19 133q-20 4 -47 7t-52.5 6t-48 4t-37.5 1q-127 0 -171 -36.5t-44 -122.5v-33z" />
<glyph unicode="&#xfb04;" horiz-adv-x="1961" d="M31 901v205h164v20q0 96 31.5 168t88 119t135 69.5t171.5 22.5q55 0 102 -2t92 -8t93 -15.5t106 -23.5q106 70 274 70q74 0 139.5 -4t129 -11.5t127 -16.5t135.5 -19v-1475h-287v1305q-23 2 -50.5 5t-54 5t-49 3t-35.5 1q-100 0 -147 -37t-47 -123v-53h199v-205h-199 v-901h-287v901h-381v-901h-286v901h-164zM481 1106h381v41q0 74 19 133q-41 8 -98.5 13t-86.5 5q-127 0 -171 -36.5t-44 -122.5v-33z" />
<glyph horiz-adv-x="2048" />
<glyph horiz-adv-x="2048" />
<glyph unicode="&#xd;" horiz-adv-x="450" />
<glyph unicode=" "  horiz-adv-x="593" />
<glyph unicode="&#x09;" horiz-adv-x="593" />
<glyph unicode="&#xa0;" horiz-adv-x="593" />
<glyph unicode="!" horiz-adv-x="552" d="M123 0v287h307v-287h-307zM127 1475h299l-31 -983h-237z" />
<glyph unicode="&#x22;" horiz-adv-x="901" d="M123 1290v215h287v-213l-70 -354h-147zM492 1290v215h286v-213l-69 -354h-148z" />
<glyph unicode="#" d="M23 367l16 200h162l26 314h-164l19 200h164l30 353h228l-31 -353h213l31 353h227l-31 -353h170l-18 -200h-170l-27 -314h172l-18 -200h-172l-31 -367h-227l31 367h-213l-31 -367h-227l30 367h-159zM428 567h213l27 314h-213z" />
<glyph unicode="$" d="M78 328l272 41q8 -72 59.5 -127.5t149.5 -55.5q33 0 66.5 9.5t59.5 30t42 53t16 81.5q0 55 -19 94.5t-57 71t-96.5 60t-136.5 63.5q-152 70 -242 166t-90 242q0 154 92.5 256t254.5 131v235h229v-233q82 -16 141.5 -51t99 -81t63.5 -97.5t34 -98.5l-268 -51 q-10 68 -53.5 121t-127.5 53q-86 0 -131 -42t-45 -118q0 -63 46 -111t169 -100q94 -39 173 -80.5t135.5 -96t88 -123t31.5 -160.5q0 -74 -19.5 -144.5t-61.5 -129t-109.5 -99.5t-165.5 -57v-256h-229v253q-94 14 -162 54.5t-112 91.5t-67.5 105.5t-29.5 99.5z" />
<glyph unicode="%" horiz-adv-x="1622" d="M82 1108q0 174 89 260t224 86t223.5 -86t88.5 -260t-88.5 -258t-223.5 -84t-224 84t-89 258zM303 1108q0 -104 23.5 -147t68.5 -43t68.5 43t23.5 147t-23.5 149.5t-68.5 45.5t-68.5 -45.5t-23.5 -149.5zM406 0l563 1434h243l-563 -1434h-243zM915 322q0 174 89.5 260 t224.5 86t223 -86t88 -260t-88 -258t-223 -84t-224.5 84t-89.5 258zM1137 322q0 -104 23.5 -147.5t68.5 -43.5t68.5 43t23.5 148q0 104 -23.5 149t-68.5 45t-68.5 -45t-23.5 -149z" />
<glyph unicode="&#x26;" horiz-adv-x="1476" d="M123 377q0 143 65.5 232t190.5 163q-49 53 -81 95t-50.5 80t-24.5 75t-6 82q0 55 22.5 116.5t74 113.5t131 86t196.5 34q109 0 186.5 -29.5t127 -78t73 -107.5t23.5 -121q0 -123 -72 -217t-207 -168l225 -235q23 59 37.5 125.5t20.5 134.5l252 -33q-25 -236 -125 -418 l295 -307h-332l-119 119q-78 -66 -179.5 -102.5t-230.5 -36.5q-117 0 -208 28.5t-154.5 80.5t-97 125t-33.5 163zM414 406q0 -82 66.5 -138.5t170.5 -56.5q59 0 111.5 20.5t95.5 55.5l-309 311l-14 12q-66 -43 -93.5 -89t-27.5 -115zM500 1110q0 -27 5 -49.5t18.5 -47 t36 -52t58.5 -66.5q98 51 138.5 106.5t40.5 110.5q0 59 -40 98t-108 39t-108.5 -36.5t-40.5 -102.5z" />
<glyph unicode="'" horiz-adv-x="532" d="M123 1290v215h287v-213l-70 -354h-147z" />
<glyph unicode="(" horiz-adv-x="696" d="M61 674q0 180 26 323.5t68 261t95 215t110 185.5h254q-51 -94 -100 -196.5t-88 -221.5t-62.5 -259t-23.5 -308q0 -170 23.5 -309.5t62.5 -258t88 -221t100 -196.5h-254q-57 88 -110 185t-95 215t-68 261.5t-26 323.5z" />
<glyph unicode=")" horiz-adv-x="696" d="M82 -311q51 94 100 196.5t88 221t62.5 258t23.5 309.5q0 168 -23.5 308t-62.5 259t-88 221.5t-100 196.5h254q57 -88 110.5 -185.5t95.5 -215t67.5 -261t25.5 -323.5t-25.5 -323.5t-67.5 -261.5t-95.5 -215t-110.5 -185h-254z" />
<glyph unicode="*" horiz-adv-x="962" d="M82 1110l88 272l246 -163l-78 286h287l-80 -286l248 163l88 -272l-297 -14l233 -185l-231 -168l-105 277l-104 -277l-232 168l232 185z" />
<glyph unicode="+" d="M133 537v241h289v289h262v-289h289v-241h-289v-289h-262v289h-289z" />
<glyph unicode="," horiz-adv-x="542" d="M82 -332l113 332h-72v276h297v-274l-172 -334h-166z" />
<glyph unicode="-" horiz-adv-x="829" d="M102 535v247h625v-247h-625z" />
<glyph unicode="." horiz-adv-x="542" d="M123 0v276h297v-276h-297z" />
<glyph unicode="/" horiz-adv-x="696" d="M23 -184l378 1679h273l-379 -1679h-272z" />
<glyph unicode="0" d="M92 715q0 201 31 341t89 229t144 129t199 40t198 -40t143 -129t88 -229.5t30 -340.5q0 -197 -30 -336t-88 -228.5t-143 -130t-198 -40.5t-199 41.5t-144 131t-89 228.5t-31 334zM387 715q0 -162 12.5 -265.5t34 -164t53 -83t68.5 -22.5t67.5 22.5t52 83t34 164 t12.5 265.5t-12.5 266t-34 165.5t-52 85t-67.5 23.5t-68.5 -23.5t-53 -85t-34 -165.5t-12.5 -266z" />
<glyph unicode="1" d="M178 999v267l279 168h297v-1215h223v-219h-780v219h272v952z" />
<glyph unicode="2" d="M96 1071q14 80 50 149.5t92.5 122t133.5 82t175 29.5q86 0 162.5 -23.5t136 -72.5t94.5 -126t35 -183q0 -70 -20.5 -133.5t-58.5 -128t-92 -135t-122 -154.5l-209 -254h479v-244h-833v244l332 391q61 74 106 132t72.5 107.5t41 91.5t13.5 83q0 55 -12.5 91t-31.5 55 t-45.5 27.5t-55.5 8.5q-70 0 -115 -50.5t-55 -144.5z" />
<glyph unicode="3" d="M82 1102q18 80 59 144.5t99.5 110.5t131 71.5t156.5 25.5q82 0 159 -21.5t135.5 -67.5t93 -116.5t34.5 -167.5v-10q0 -66 -24.5 -117t-61.5 -89t-81 -61.5t-83 -31.5q16 -4 39 -10t49 -17q39 -16 74 -44.5t61.5 -69.5t43 -94.5t16.5 -120.5q0 -117 -39 -199t-102.5 -135 t-144.5 -77.5t-165 -24.5q-102 0 -179 29.5t-132 78.5t-88 112.5t-45 131.5l270 35q2 -33 14.5 -64t33 -55.5t49 -38.5t65.5 -14q27 0 56.5 9t54 32.5t41 65.5t16.5 108q0 84 -21.5 133t-55 74.5t-74.5 32.5t-80 7h-66v203h82q27 0 59.5 8.5t60.5 30t47 59t19 97.5 q0 57 -14 93t-35.5 56.5t-48 27.5t-49.5 7q-63 0 -107.5 -45t-54.5 -127z" />
<glyph unicode="4" d="M115 281v233l278 920h277l-283 -934h219l41 409h211v-409h197v-219h-197v-281h-266v281h-477z" />
<glyph unicode="5" d="M119 303l268 35q10 -70 53.5 -106.5t102.5 -36.5q29 0 59.5 11t55 40.5t40 80t15.5 130.5q0 92 -15.5 149.5t-40 89t-55.5 43t-61 11.5q-41 0 -86 -25t-72 -78h-221l39 787h719v-209h-469l-23 -373q41 41 99.5 68.5t129.5 27.5q72 0 135.5 -25.5t111.5 -83t76 -148.5 t28 -222q0 -125 -37 -217t-100.5 -152.5t-149.5 -90t-184 -29.5q-102 0 -176 28.5t-124.5 74.5t-79 103.5t-38.5 116.5z" />
<glyph unicode="6" d="M115 676q0 248 47 400.5t119.5 236.5t157.5 112.5t163 28.5q100 0 170 -29.5t117 -77t73.5 -105.5t38.5 -116l-274 -34q-14 161 -133 161q-29 0 -58.5 -13t-55 -56t-44 -126t-24.5 -220q45 47 107.5 78.5t154.5 31.5q166 0 255 -116.5t89 -358.5q0 -137 -39 -231.5 t-103.5 -152.5t-146.5 -83.5t-168 -25.5q-104 0 -187 34.5t-140.5 116.5t-88 215t-30.5 330zM410 676q0 -172 13 -270.5t34.5 -147.5t48 -61.5t55.5 -12.5q27 0 56.5 8.5t54 37t40 84t15.5 151.5q0 80 -13.5 130t-35 80t-50 41t-59.5 11q-78 0 -159 -51z" />
<glyph unicode="7" d="M111 1208v226h862v-246l-426 -1188h-301l450 1208h-585z" />
<glyph unicode="8" d="M84 399q0 78 24.5 134.5t59.5 95.5t76 62.5t71 33.5q-37 18 -72.5 48t-63 72t-44 95t-16.5 121q0 100 33.5 175t93 123t138.5 71.5t169 23.5q88 0 168 -22.5t138.5 -68.5t93 -117.5t34.5 -170.5q0 -63 -20.5 -110t-51 -81t-66.5 -56.5t-69 -34.5q35 -12 77 -40t79 -74 t61.5 -111.5t24.5 -153.5q0 -115 -35 -198t-98.5 -135t-149.5 -76.5t-186 -24.5q-102 0 -187 25.5t-148.5 76.5t-98.5 130t-35 187zM387 414q0 -117 45 -172.5t121 -55.5t121 55.5t45 172.5q0 59 -16.5 98t-44 63.5t-62.5 41t-70 30.5q-23 -10 -47 -23.5t-44.5 -38 t-34 -65.5t-13.5 -106zM401 1071q0 -53 20.5 -88t48.5 -58.5t58.5 -34.5t51.5 -16q14 8 35.5 21.5t41 36t34 56.5t14.5 83q0 66 -15.5 104.5t-38 60t-49.5 28t-49 6.5q-23 0 -49.5 -6.5t-49 -25.5t-38 -59t-15.5 -108z" />
<glyph unicode="9" d="M82 963q0 137 40 231t106.5 151.5t149.5 83t169 25.5q209 0 325.5 -162t116.5 -514q0 -244 -35.5 -398.5t-100.5 -243.5t-153 -122.5t-190 -33.5q-90 0 -158.5 27.5t-118 72.5t-79 101.5t-41.5 115.5l276 35q24 -152 137 -152q35 0 63.5 16.5t50.5 64.5t35 132t17 219 q-45 -47 -109.5 -79.5t-156.5 -32.5q-166 0 -255 119.5t-89 343.5zM373 971q0 -80 13 -128t34.5 -76t50 -37t59.5 -9q82 0 164 51q-2 160 -15 255t-34.5 144.5t-48.5 63.5t-55 14q-29 0 -58.5 -8t-54.5 -35.5t-40 -84t-15 -150.5z" />
<glyph unicode=":" horiz-adv-x="542" d="M123 0v276h297v-276h-297zM123 829v277h297v-277h-297z" />
<glyph unicode=";" horiz-adv-x="542" d="M82 -332l113 332h-72v276h297v-274l-172 -334h-166zM123 829v277h297v-277h-297z" />
<glyph unicode="&#x3c;" d="M133 524v246l840 338v-279l-545 -174l545 -182v-287z" />
<glyph unicode="=" d="M133 350v246h840v-246h-840zM133 739v246h840v-246h-840z" />
<glyph unicode="&#x3e;" d="M133 186v287l545 182l-545 174v279l840 -338v-246z" />
<glyph unicode="?" horiz-adv-x="1064" d="M92 1153q18 63 51 126.5t87.5 114t134 81t190.5 30.5q86 0 162 -22.5t132 -67.5t90 -114.5t34 -163.5q0 -104 -44 -175t-98.5 -126.5t-98.5 -104.5t-44 -110v-129h-285v188q0 51 20.5 93t50.5 79t65.5 69.5t65.5 66.5t50.5 71t20.5 82q0 86 -42 119.5t-97 33.5 q-61 0 -105.5 -48t-54.5 -128zM393 0v287h307v-287h-307z" />
<glyph unicode="@" horiz-adv-x="1890" d="M123 637q0 158 39 282.5t104.5 221t152.5 166t185 113.5t200.5 64.5t196.5 20.5q160 0 299.5 -42t244 -131t163.5 -228t59 -332q0 -119 -31.5 -223.5t-88 -183t-133 -123.5t-164.5 -45q-94 0 -148.5 53t-64.5 135q-12 -31 -32 -64.5t-51.5 -61.5t-77.5 -45t-114 -17 q-61 0 -117.5 19.5t-99.5 64.5t-68.5 117.5t-25.5 179.5q0 195 46 309t109.5 174.5t131 78t110.5 17.5q72 0 119 -23.5t70 -52.5l26 58h174l-55 -508q-4 -33 -7 -68t-3 -63q0 -43 5 -67.5t14 -38t21.5 -16.5t28.5 -3q27 0 60 20.5t59.5 66.5t45 119.5t18.5 182.5 q0 174 -44 281.5t-118 168t-168 82t-193 21.5q-86 0 -194.5 -31t-203.5 -107.5t-160.5 -207.5t-65.5 -332q0 -195 53 -320.5t134 -197.5t180.5 -99.5t191.5 -27.5q88 0 170 8t158 25v-183q-72 -16 -156 -28.5t-188 -12.5q-143 0 -285.5 47.5t-256.5 148.5t-184.5 259 t-70.5 379zM797 571q0 -63 10 -101t25.5 -58.5t34 -26.5t34.5 -6q43 0 84 35t49 112l41 432q-16 12 -35.5 20.5t-54.5 8.5q-23 0 -55.5 -15.5t-62 -59.5t-50 -125.5t-20.5 -215.5z" />
<glyph unicode="A" horiz-adv-x="1282" d="M10 0l453 1475h350l459 -1475h-326l-90 342h-455l-90 -342h-301zM459 551h342l-170 645z" />
<glyph unicode="B" horiz-adv-x="1247" d="M164 0v1475h383q123 0 225 -16.5t176 -60.5t116 -122t42 -199q0 -53 -14.5 -103t-41 -91t-62.5 -69t-79 -36q16 -4 40 -11t46 -17q72 -35 116 -114t44 -204q0 -123 -38 -206t-111.5 -133t-182 -71.5t-248.5 -21.5h-411zM471 209h119q49 0 94 8t80 32.5t55.5 67.5 t20.5 115q0 123 -67.5 181.5t-172.5 58.5h-129v-463zM471 868h109q31 0 68.5 6.5t71.5 28t56.5 62.5t22.5 112q0 53 -20.5 89t-53.5 58.5t-73 32t-79 9.5h-102v-398z" />
<glyph unicode="C" horiz-adv-x="1234" d="M123 737q0 229 48 379t126 236t179.5 119.5t205.5 33.5q113 0 196 -37.5t140 -97t89 -133.5t44 -145l-285 -35q-8 49 -21.5 90t-36 71.5t-55 48t-77.5 17.5q-47 0 -88 -24.5t-74 -86t-51.5 -168t-18.5 -268.5q0 -164 17.5 -269.5t47.5 -166.5t71 -84.5t90 -23.5 q92 0 144 67.5t60 173.5l289 -31q-10 -70 -40.5 -146.5t-91 -140t-152 -105.5t-220.5 -42q-98 0 -194 32t-172 118t-123 235.5t-47 382.5z" />
<glyph unicode="D" horiz-adv-x="1323" d="M164 0v1475h383q131 0 249.5 -32t208 -115t142.5 -225t53 -366q0 -223 -53 -365.5t-142.5 -225.5t-207 -114.5t-246.5 -31.5h-387zM471 223h80q61 0 121.5 19.5t108.5 75t78 155.5t30 264q0 162 -31 263.5t-79 157.5t-109.5 75.5t-122.5 19.5h-76v-1030z" />
<glyph unicode="E" horiz-adv-x="1054" d="M164 0v1475h788v-236h-481v-385h420v-221h-420v-402h481v-231h-788z" />
<glyph unicode="F" horiz-adv-x="1001" d="M164 0v1475h766v-232h-459v-418h397v-221h-397v-604h-307z" />
<glyph unicode="G" horiz-adv-x="1282" d="M123 737q0 229 48 379t126 236t179.5 119.5t207.5 33.5q96 0 173 -27.5t134.5 -74.5t96 -111.5t61.5 -138.5l-281 -35q-20 70 -62 119t-126 49q-49 0 -91 -24.5t-75 -87t-51.5 -169t-18.5 -268.5q0 -164 14.5 -269.5t44 -166.5t72.5 -84.5t99 -23.5q66 0 115 28.5 t77 69.5v352h-176v213h440v-856h-153l-59 109q-47 -53 -123 -96.5t-181 -43.5q-88 0 -175 32t-157.5 118t-114.5 235.5t-44 382.5z" />
<glyph unicode="H" horiz-adv-x="1341" d="M164 0v1475h307v-619h399v619h308v-1475h-308v635h-399v-635h-307z" />
<glyph unicode="I" horiz-adv-x="634" d="M164 0v1475h307v-1475h-307z" />
<glyph unicode="J" horiz-adv-x="796" d="M20 0v229q35 -10 76 -16t70 -6q37 0 67.5 7t54 28.5t36 61.5t12.5 106v1065h307v-1082q0 -86 -17.5 -162.5t-62.5 -135t-124 -92.5t-199 -34q-57 0 -120 9.5t-100 21.5z" />
<glyph unicode="K" horiz-adv-x="1267" d="M164 0v1475h307v-615l375 615h323l-442 -691l520 -784h-375l-401 641v-641h-307z" />
<glyph unicode="L" horiz-adv-x="1028" d="M164 0v1475h307v-1233h526v-242h-833z" />
<glyph unicode="M" horiz-adv-x="1683" d="M164 0v1475h381l299 -1072l286 1072h390v-1475h-281v1042l-289 -1042h-229l-297 1042v-1042h-260z" />
<glyph unicode="N" horiz-adv-x="1368" d="M164 0v1475h391l393 -1057v1057h256v-1475h-364l-418 1071v-1071h-258z" />
<glyph unicode="O" horiz-adv-x="1398" d="M123 737q0 215 44 361.5t121 236.5t182 130t228 40t228.5 -40t183.5 -130t122 -236.5t44 -361.5t-44 -361.5t-121 -236.5t-182.5 -130t-230.5 -40t-230.5 40t-182 130t-119.5 236.5t-43 361.5zM436 737q0 -156 18.5 -260t52.5 -166.5t83 -89t108 -26.5t108.5 26.5 t84.5 90t53.5 168t18.5 257.5q0 154 -20.5 258.5t-55.5 168t-84 91t-105 27.5q-55 0 -103 -26.5t-84 -90t-55.5 -168t-19.5 -260.5z" />
<glyph unicode="P" horiz-adv-x="1183" d="M164 0v1475h395q115 0 217.5 -19.5t179 -73t121.5 -148.5t45 -247t-46 -247t-121.5 -148t-176 -72.5t-207.5 -19.5h-100v-500h-307zM471 719h104q39 0 80 10t74 39t53.5 81t20.5 138t-19.5 138.5t-53.5 81t-77 38.5t-90 10h-92v-536z" />
<glyph unicode="Q" horiz-adv-x="1398" d="M123 737q0 215 44 361.5t121 236.5t182 130t228 40t228.5 -40t183.5 -130t122 -236.5t44 -361.5q0 -164 -27.5 -289.5t-77 -216t-119 -146.5t-151.5 -81l324 -24v-252l-561 127v114q-117 6 -216.5 49t-172 134.5t-112.5 234.5t-40 350zM436 737q0 -156 18.5 -260 t52.5 -166.5t83 -89t108 -26.5t108.5 26.5t84.5 90t53.5 168t18.5 257.5q0 154 -20.5 258.5t-55.5 168t-84 91t-105 27.5q-55 0 -103 -26.5t-84 -90t-55.5 -168t-19.5 -260.5z" />
<glyph unicode="R" horiz-adv-x="1234" d="M164 0v1475h405q117 0 217.5 -24t174 -78t115.5 -142t42 -219q0 -84 -19.5 -148.5t-53 -113t-80.5 -82t-103 -58.5l352 -610h-356l-289 547h-98v-547h-307zM471 766h115q37 0 74.5 12.5t68.5 40t50.5 74.5t19.5 119q0 76 -18.5 124t-50.5 73.5t-73 34.5t-84 9h-102v-487z " />
<glyph unicode="S" horiz-adv-x="1202" d="M82 334l289 41q4 -35 21.5 -69t46 -59.5t68.5 -41t87 -15.5q33 0 67.5 9.5t63.5 31t46 56.5t17 88q0 59 -26.5 99t-73.5 70.5t-112.5 58.5t-145.5 65q-92 41 -153.5 86t-99.5 97t-54.5 112.5t-16.5 134.5q0 90 34 164.5t97.5 129t156.5 84t212 29.5q121 0 206 -32.5 t140.5 -83t86 -110.5t42.5 -114l-284 -51q-10 68 -61.5 121t-137.5 53q-74 0 -128 -35.5t-54 -119.5q0 -29 6 -54.5t27.5 -51.5t64.5 -52.5t119 -54.5q96 -37 181 -80t148.5 -101.5t100.5 -134.5t37 -180q0 -90 -28 -172t-89 -144.5t-158.5 -100.5t-236.5 -38 q-133 0 -225.5 38t-151.5 93.5t-90 119t-39 114.5z" />
<glyph unicode="T" horiz-adv-x="1114" d="M41 1233v242h1032v-242h-364v-1233h-308v1233h-360z" />
<glyph unicode="U" horiz-adv-x="1316" d="M154 457v1018h307v-1037q0 -78 18.5 -125t47 -73.5t65.5 -35.5t72 -9t71.5 9t66 35.5t48 73.5t18.5 125v1037h295v-1018q0 -242 -127 -365t-374 -123q-248 0 -378 123t-130 365z" />
<glyph unicode="V" horiz-adv-x="1198" d="M20 1475h322l264 -1217l273 1217h299l-387 -1475h-388z" />
<glyph unicode="W" horiz-adv-x="1695" d="M51 1475h311l132 -1164l174 1164h379l172 -1160l151 1160h275l-226 -1475h-391l-182 1155l-187 -1155h-383z" />
<glyph unicode="X" horiz-adv-x="1243" d="M41 0l422 766l-385 709h356l213 -433l232 433h290l-383 -674l416 -801h-362l-238 502l-252 -502h-309z" />
<glyph unicode="Y" horiz-adv-x="1150" d="M10 1475h332l246 -592l266 592h287l-418 -885v-590h-287v590z" />
<glyph unicode="Z" horiz-adv-x="1136" d="M92 0v240l606 1011h-559v224h895v-234l-608 -1018h588v-223h-922z" />
<glyph unicode="[" horiz-adv-x="696" d="M113 -348v2007h487v-211h-215v-1585h215v-211h-487z" />
<glyph unicode="\" horiz-adv-x="696" d="M23 1495h272l379 -1679h-273z" />
<glyph unicode="]" horiz-adv-x="696" d="M96 -137h215v1585h-215v211h488v-2007h-488v211z" />
<glyph unicode="^" horiz-adv-x="1024" d="M61 819l322 656h266l314 -656h-267l-180 457l-188 -457h-267z" />
<glyph unicode="_" horiz-adv-x="1024" d="M-4 -66h1032v-241h-1032v241z" />
<glyph unicode="`" horiz-adv-x="649" d="M61 1505h322l205 -280h-215z" />
<glyph unicode="a" horiz-adv-x="1116" d="M82 324q0 84 32.5 148.5t89 110.5t130.5 72.5t158 36.5l194 27v67q0 160 -137 160q-57 0 -99 -33.5t-53 -105.5l-276 41q16 51 48 103.5t85 93t130 66.5t185 26q193 0 298.5 -92.5t105.5 -294.5v-750h-182l-64 119q-43 -59 -115.5 -99t-185.5 -40q-55 0 -115.5 18 t-112 59t-84 106.5t-32.5 160.5zM367 354q0 -53 15 -87t39.5 -52t55.5 -25.5t60 -7.5q74 0 149 51v316l-117 -19q-92 -16 -147 -55t-55 -121z" />
<glyph unicode="b" horiz-adv-x="1142" d="M143 0v1505h287v-483q49 53 113.5 84t156.5 31q61 0 121 -25t107 -89.5t76.5 -176t29.5 -285.5q0 -305 -100 -443t-293 -138q-88 0 -148.5 33.5t-97.5 86.5l-78 -100h-174zM430 223q53 -47 127 -47q47 0 83 14.5t59.5 57.5t36 119.5t12.5 203.5q0 111 -14.5 179.5 t-37 105.5t-52 50.5t-62.5 13.5q-45 0 -82 -17.5t-70 -46.5v-633z" />
<glyph unicode="c" horiz-adv-x="1081" d="M109 563q0 158 34.5 267.5t97 177t147.5 98.5t183 31q117 0 196 -34t128 -87t73.5 -116.5t30.5 -121.5l-272 -41q-9 199 -154 199q-31 0 -60.5 -12.5t-54 -52.5t-38.5 -114.5t-14 -199.5t16 -198.5t40.5 -113.5t55.5 -52.5t60 -12.5q39 0 66.5 16.5t45 43t26.5 62.5 t13 75l283 -33q-12 -66 -41 -130t-81 -116.5t-130 -85t-187 -32.5q-92 0 -176 26.5t-148.5 93t-102 179t-37.5 284.5z" />
<glyph unicode="d" horiz-adv-x="1153" d="M109 555q0 305 100 443.5t293 138.5q74 0 128 -23.5t93 -62.5v454h287v-1505h-181l-77 135q-51 -72 -125 -113.5t-185 -41.5q-61 0 -120.5 24.5t-106.5 89t-76.5 176t-29.5 285.5zM395 545q0 -111 13.5 -179.5t37 -105.5t53 -50t62.5 -13q47 0 87 19.5t75 47.5v627 q-29 23 -62.5 36t-74.5 13q-47 0 -83 -14.5t-59.5 -57.5t-36 -120.5t-12.5 -202.5z" />
<glyph unicode="e" horiz-adv-x="1118" d="M109 553q0 162 35.5 273.5t99 180t147.5 99.5t180 31q131 0 217 -44t138.5 -130t74 -210t21.5 -284h-621q6 -86 23.5 -141.5t42.5 -87t55.5 -43t65.5 -11.5q70 0 109.5 39t52.5 99l260 -41q-16 -55 -49 -109.5t-86.5 -97.5t-128 -69.5t-175.5 -26.5q-94 0 -178 30.5 t-147.5 98t-100 177t-36.5 267.5zM397 657h357q-2 86 -15.5 143.5t-37 91.5t-54 47t-67.5 13q-35 0 -66 -10t-55.5 -42t-41 -90t-20.5 -153z" />
<glyph unicode="f" horiz-adv-x="720" d="M31 901v205h164v61q0 96 24.5 165t68.5 112t105.5 62.5t134.5 19.5q76 0 134.5 -10.5t99.5 -20.5v-207q-39 10 -78 15.5t-70 5.5q-72 0 -102.5 -29t-30.5 -100v-74h228v-205h-228v-901h-286v901h-164z" />
<glyph unicode="g" horiz-adv-x="1110" d="M90 -133q0 72 36 124t97 93q-72 59 -71 164q0 125 108 190q-72 45 -118 120t-46 185q0 111 39 186t102.5 121t146.5 66.5t171 20.5q37 0 74 -7v78l434 49v-221l-211 15q68 -47 110 -124t42 -184q0 -86 -35 -156.5t-96.5 -120.5t-144.5 -77t-177 -27t-182 27 q-10 -35 -11 -51q0 -39 44 -56.5t169 -25.5q244 -16 364 -92t120 -246q0 -160 -134.5 -246t-381.5 -86q-223 0 -336 76t-113 205zM334 -72q0 -174 213 -174q111 0 162 34t51 93t-55.5 84t-190.5 35q-45 4 -83 8t-73 15q-10 -23 -17 -46.5t-7 -48.5zM379 743q0 -59 18.5 -97 t44 -60.5t55 -30.5t54.5 -8t53.5 8t55 29.5t44 59.5t17.5 99q0 57 -14.5 97.5t-38 65t-54 35.5t-63.5 11t-63.5 -10t-55 -33.5t-39 -64t-14.5 -101.5z" />
<glyph unicode="h" horiz-adv-x="1193" d="M143 0v1505h287v-491q51 59 118.5 91t160.5 32q76 0 138 -22.5t107 -71t71 -124t26 -182.5v-737h-287v745q0 92 -32 137.5t-124 45.5q-53 0 -97 -23.5t-81 -58.5v-846h-287z" />
<glyph unicode="i" horiz-adv-x="573" d="M131 1249v256h311v-256h-311zM143 0v1106h287v-1106h-287z" />
<glyph unicode="j" horiz-adv-x="577" d="M-92 -102q27 -6 60.5 -11.5t58.5 -5.5q59 0 87.5 24.5t28.5 92.5v1108h287v-1114q0 -162 -87 -246t-243 -84q-47 0 -101 9.5t-91 21.5v205zM129 1249v256h311v-256h-311z" />
<glyph unicode="k" horiz-adv-x="1140" d="M143 0v1505h287v-823l326 424h307l-379 -463l436 -643h-342l-348 537v-537h-287z" />
<glyph unicode="l" horiz-adv-x="573" d="M143 0v1505h287v-1505h-287z" />
<glyph unicode="m" horiz-adv-x="1761" d="M143 0v1106h195l61 -133q49 78 120 121t175 43q98 0 171 -40t114 -126q53 78 130 122t181 44q152 0 240 -93.5t88 -306.5v-737h-287v745q0 92 -24.5 137.5t-116.5 45.5q-49 0 -92 -29t-82 -70q6 -43 6 -92v-737h-287v745q0 92 -24.5 137.5t-116.5 45.5q-47 0 -88 -24.5 t-76 -63.5v-840h-287z" />
<glyph unicode="n" horiz-adv-x="1191" d="M143 0v1106h195l61 -129q53 76 128 118t180 42q76 0 138 -22.5t107 -71t71 -124t26 -182.5v-737h-287v745q0 92 -32 137.5t-124 45.5q-53 0 -96 -22.5t-80 -57.5v-848h-287z" />
<glyph unicode="o" horiz-adv-x="1198" d="M109 553q0 170 43 282.5t112.5 179t157.5 94.5t178 28t178 -27t157 -93.5t112 -179t43 -284.5t-43 -282.5t-112 -175t-157 -90t-178 -25.5t-178 25.5t-157.5 91t-112.5 176t-43 280.5zM403 553q0 -117 13.5 -189.5t40 -114.5t62.5 -56.5t83 -14.5q45 0 82 14.5t61.5 55.5 t38 113.5t13.5 191.5t-13.5 193.5t-39 117.5t-62.5 58.5t-82 15.5q-47 0 -83 -16.5t-61.5 -59.5t-39 -117.5t-13.5 -191.5z" />
<glyph unicode="p" horiz-adv-x="1153" d="M143 -348v1454h195l57 -125q53 72 129 114t187 42q61 0 120.5 -25t106.5 -89.5t76.5 -176t29.5 -285.5q0 -305 -100 -443t-293 -138q-76 0 -130 23.5t-91 64.5v-416h-287zM430 233q29 -25 61.5 -41t75.5 -16q47 0 83 14.5t59.5 57.5t36 119.5t12.5 203.5 q0 111 -14.5 179.5t-37 105.5t-52 50.5t-62.5 13.5q-49 0 -88 -20.5t-74 -53.5v-613z" />
<glyph unicode="q" horiz-adv-x="1163" d="M109 555q0 305 100 443.5t293 138.5q104 0 166.5 -35t97.5 -88l80 92h174v-1454h-287v465q-53 -63 -122.5 -100t-168.5 -37q-61 0 -120.5 24.5t-106.5 89t-76.5 176t-29.5 285.5zM395 545q0 -111 13.5 -179.5t37 -105.5t53 -50t62.5 -13q49 0 92 21.5t80 53.5v613 q-31 23 -66.5 39t-80.5 16q-47 0 -83 -14.5t-59.5 -57.5t-36 -120.5t-12.5 -202.5z" />
<glyph unicode="r" horiz-adv-x="731" d="M143 0v1106h195l61 -158q41 86 100.5 132t131.5 46q43 0 69 -8v-278q-18 6 -38.5 9t-49.5 3q-55 0 -101 -36t-81 -91v-725h-287z" />
<glyph unicode="s" horiz-adv-x="1052" d="M78 272l276 56q10 -68 54.5 -107t109.5 -39q66 0 105 28t39 85q0 31 -13.5 52.5t-41 38.5t-68.5 31.5t-99 33.5q-76 23 -136 50t-103 68t-65.5 97.5t-22.5 136.5q0 84 30.5 146.5t86 104.5t132 62.5t168.5 20.5q98 0 171 -26t122 -66.5t79 -91t42 -99.5l-268 -53 q-10 57 -43 96t-105 39q-57 0 -93 -27.5t-36 -83.5q0 -35 15.5 -56t41 -35.5t62.5 -26t80 -25.5q70 -23 134.5 -47.5t112.5 -61t76.5 -93t28.5 -144.5q0 -92 -32.5 -159.5t-91 -110.5t-138.5 -64.5t-174 -21.5q-96 0 -173 25.5t-131 66.5t-88 94t-44 106z" />
<glyph unicode="t" horiz-adv-x="747" d="M31 901v205h166l18 266h266v-266h213v-205h-213v-602q0 -33 10.5 -52.5t25.5 -30.5t34.5 -15t38.5 -4q23 0 53.5 4t52.5 8v-199q-39 -10 -89 -17t-97 -7q-70 0 -127 18.5t-99 57t-65.5 100t-23.5 147.5v592h-164z" />
<glyph unicode="u" horiz-adv-x="1177" d="M143 389v717h287v-729q0 -92 28.5 -140.5t121.5 -48.5q51 0 92 22.5t76 57.5v838h286v-1106h-194l-64 133q-47 -72 -119.5 -112.5t-177.5 -40.5q-152 0 -244 98t-92 311z" />
<glyph unicode="v" horiz-adv-x="1048" d="M10 1106h309l218 -875l211 875h290l-327 -1106h-373z" />
<glyph unicode="w" horiz-adv-x="1613" d="M31 1106h291l143 -870l176 870h356l150 -866l172 866h264l-256 -1106h-366l-152 819l-180 -819h-357z" />
<glyph unicode="x" horiz-adv-x="1107" d="M31 0l352 586l-326 520h332l174 -293l166 293h281l-299 -494l366 -612h-342l-203 373l-204 -373h-297z" />
<glyph unicode="y" horiz-adv-x="1046" d="M10 1106h301l209 -877l238 877h278l-340 -1137q-25 -80 -53.5 -138t-69.5 -96t-99 -55.5t-142 -17.5q-41 0 -94.5 7t-90.5 18v204q37 -10 78 -14t64 -4q74 0 106.5 27.5t42.5 99.5h-94z" />
<glyph unicode="z" horiz-adv-x="1013" d="M72 0v240l518 649h-479v217h811v-240l-510 -649h489v-217h-829z" />
<glyph unicode="{" horiz-adv-x="696" d="M45 539v235q74 0 107.5 47t33.5 133v322q0 127 30 202.5t87 115.5t140 52.5t192 12.5v-201q-45 0 -79 -5t-56.5 -22.5t-33.5 -49t-11 -85.5v-338q0 -72 -11.5 -123t-34 -85.5t-55 -57t-75.5 -37.5q86 -29 131 -95t45 -208v-338q0 -53 11 -84.5t33.5 -49t56.5 -22.5t79 -5 v-201q-109 0 -192 12t-140 52t-87 116t-30 203v321q0 86 -33.5 134.5t-107.5 48.5z" />
<glyph unicode="|" horiz-adv-x="655" d="M193 -246v1884h270v-1884h-270z" />
<glyph unicode="}" horiz-adv-x="696" d="M61 -147q45 0 79 5t56.5 22.5t34 49t11.5 84.5v338q0 141 45 208t131 95q-43 14 -76 37t-55.5 57.5t-33.5 86t-11 122.5v338q0 53 -11.5 85t-34 49.5t-56.5 22.5t-79 5v201q106 0 190.5 -12.5t142 -52.5t87 -115.5t29.5 -202.5v-322q0 -86 34 -133t107 -47v-235 q-74 0 -107.5 -48.5t-33.5 -134.5v-321q0 -127 -29.5 -203t-87 -116t-141.5 -52t-191 -12v201z" />
<glyph unicode="~" d="M133 506v242q39 31 106.5 56t139.5 25q63 0 110.5 -17t88 -36.5t80.5 -37t90 -17.5q74 0 127 24.5t98 63.5v-242q-39 -31 -106.5 -56.5t-139.5 -25.5q-63 0 -110.5 17.5t-89.5 37t-82 37t-89 17.5q-74 0 -126 -24.5t-97 -63.5z" />
<glyph unicode="&#xa1;" horiz-adv-x="552" d="M123 819v287h307v-287h-307zM127 -369l31 983h237l31 -983h-299z" />
<glyph unicode="&#xa2;" d="M115 563q0 135 26.5 235.5t74.5 169t113.5 107.5t145.5 53v244h209v-246q86 -16 144.5 -53t95.5 -86t56 -103.5t26 -105.5l-273 -41q-8 199 -153 199q-31 0 -61 -12.5t-54.5 -52.5t-38.5 -114.5t-14 -199.5t16 -198.5t41 -113.5t55.5 -52.5t59.5 -12.5q39 0 66.5 16.5 t45 43t26.5 62.5t13 75l283 -33q-10 -57 -33.5 -113.5t-63.5 -105.5t-98.5 -85t-138.5 -50v-226h-209v224q-74 12 -139.5 49t-114.5 104.5t-77.5 171t-28.5 250.5z" />
<glyph unicode="&#xa3;" d="M82 0v225h8q78 4 123 59.5t45 141.5v248h-156v215h156v78q0 487 420 487q150 0 248 -81t129 -206l-267 -49q-18 66 -42.5 93.5t-69.5 27.5q-29 0 -50.5 -11t-38 -42t-24.5 -84t-8 -135v-78h381v-215h-381v-225q0 -86 -29.5 -138.5t-83.5 -85.5h566v-225h-926z" />
<glyph unicode="&#xa4;" horiz-adv-x="1228" d="M57 287l136 135q-29 53 -45.5 120.5t-16.5 153.5q0 164 57 271l-131 131l152 151l119 -119q66 47 139.5 68t144.5 21q72 0 147 -21.5t140 -69.5l121 121l151 -151l-135 -135q27 -53 41.5 -120t14.5 -147q0 -164 -60 -272l139 -137l-151 -152l-131 129q-63 -41 -135 -60.5 t-142 -19.5t-141.5 18.5t-134.5 59.5l-127 -127zM389 696q0 -92 21.5 -152.5t54.5 -96t73 -50t76 -14.5q37 0 77 14.5t72 50t52.5 96t20.5 152.5t-21.5 153.5t-54.5 98.5t-72 53.5t-76 16.5t-75.5 -16.5t-71.5 -53.5t-54.5 -98.5t-21.5 -153.5z" />
<glyph unicode="&#xa5;" d="M39 1434h315l211 -588l223 588h279l-295 -676h174v-191h-246v-131h246v-190h-246v-246h-286v246h-246v190h246v131h-246v191h170z" />
<glyph unicode="&#xa6;" horiz-adv-x="655" d="M193 -246v799h270v-799h-270zM193 840v798h270v-798h-270z" />
<glyph unicode="&#xa7;" d="M123 596q0 92 39 157.5t102 110.5q-53 41 -80.5 101.5t-27.5 154.5q0 84 35.5 146.5t94 104.5t133.5 62.5t152 20.5q92 0 162 -23.5t119 -60.5t80 -85t47 -97l-262 -53q-10 57 -49 91t-99 34q-57 0 -95 -31t-38 -86q0 -68 51.5 -96.5t137.5 -57.5q70 -23 135 -47 t114.5 -60t79 -90.5t29.5 -138.5q0 -92 -39 -158.5t-104 -109.5q53 -41 81.5 -101.5t28.5 -154.5q0 -162 -113.5 -248t-297.5 -86q-88 0 -157 23.5t-119 60.5t-83 85t-49 97l262 54q10 -57 49 -91t99 -34q57 0 93 30.5t36 85.5q0 35 -13.5 57.5t-38 39t-59.5 29t-78 26.5 q-72 23 -136 46.5t-113.5 60t-79 91t-29.5 140.5zM412 637q0 -35 15 -58.5t43 -40t68 -29.5t89 -28q35 25 51 59.5t16 71.5q0 33 -15 56.5t-43 41t-67 31t-86 27.5q-33 -25 -52 -60.5t-19 -70.5z" />
<glyph unicode="&#xa8;" horiz-adv-x="858" d="M61 1249v236h271v-236h-271zM526 1249v236h271v-236h-271z" />
<glyph unicode="&#xa9;" horiz-adv-x="1726" d="M121 737q0 207 65.5 353.5t170 238.5t237.5 134t268 42t268.5 -42t238 -134t170 -238.5t65.5 -353.5t-65.5 -353t-170 -238.5t-238 -134.5t-268.5 -42t-268 42t-237.5 134.5t-170 238.5t-65.5 353zM354 737q0 -166 42 -277.5t113 -178t163 -95t190 -28.5t189.5 28.5 t162 95t113.5 178t43 277.5t-43 277.5t-113.5 178.5t-161.5 95.5t-190 28.5q-98 0 -190 -28.5t-163 -95.5t-113 -178.5t-42 -277.5zM547 739q0 127 25.5 209t70.5 129t105.5 65.5t128.5 18.5q72 0 123 -24.5t84.5 -60.5t51 -78t21.5 -74l-184 -19q-4 47 -25.5 78t-73.5 31 q-25 0 -46 -11.5t-37.5 -41t-25.5 -83t-9 -139.5q0 -82 10 -134t26.5 -82.5t37.5 -43t44 -12.5q51 0 77 32.5t28 84.5l186 -19q-4 -37 -21.5 -80t-53 -79.5t-91 -62.5t-133.5 -26q-66 0 -123 19.5t-101 68t-69.5 130t-25.5 204.5z" />
<glyph unicode="&#xaa;" horiz-adv-x="1024" d="M123 885q0 133 92 196.5t244 79.5l151 19v61q0 53 -29.5 79t-70.5 26q-35 0 -66.5 -18.5t-48.5 -70.5l-227 31q12 41 40 80t71 69.5t103 49t138 18.5q150 0 245 -70.5t95 -220.5v-563h-166l-57 99q-39 -49 -100.5 -80t-147.5 -31q-51 0 -99 13.5t-85 43t-59.5 75.5 t-22.5 114zM164 0v236h737v-236h-737zM371 913q0 -66 34.5 -88t75.5 -22q63 0 129 37v215l-98 -13q-27 -4 -52.5 -11t-45 -22.5t-31.5 -38t-12 -57.5z" />
<glyph unicode="&#xab;" d="M82 668l276 419h205l-188 -425l168 -455h-205zM522 668l277 419h205l-189 -425l168 -455h-205z" />
<glyph unicode="&#xac;" d="M133 535v245h840v-491h-244v246h-596z" />
<glyph unicode="&#xad;" horiz-adv-x="829" d="M102 535v247h625v-247h-625z" />
<glyph unicode="&#xae;" horiz-adv-x="1251" d="M137 1010q0 137 43 232t112.5 153.5t157 84t173.5 25.5t173 -25.5t156.5 -84t112.5 -153.5t43 -232q0 -139 -43 -233.5t-112.5 -153t-156.5 -84t-173 -25.5t-173.5 25.5t-157 84t-112.5 152.5t-43 234zM299 1010q0 -109 27.5 -178.5t72.5 -111.5t103.5 -58.5t120.5 -16.5 q61 0 119.5 16.5t103.5 58.5t72.5 111.5t27.5 178.5q0 106 -27.5 176.5t-72.5 112.5t-103.5 58.5t-119.5 16.5t-120 -16.5t-104 -58.5t-72.5 -112.5t-27.5 -176.5zM449 764v522h163q98 0 150.5 -41t52.5 -127q0 -109 -90 -149l115 -205h-150l-90 182h-25v-182h-126z M575 1047h41q66 0 66 71q0 70 -70 70h-37v-141z" />
<glyph unicode="&#xaf;" horiz-adv-x="737" d="M61 1298v207h615v-207h-615z" />
<glyph unicode="&#xb0;" horiz-adv-x="727" d="M61 1159q0 147 84 221t220 74q135 0 218 -73.5t83 -221.5q0 -72 -24 -126t-63.5 -91t-95 -55.5t-118.5 -18.5t-119 18.5t-96.5 55.5t-64.5 91t-24 126zM268 1159q0 -82 30 -110.5t67 -28.5t66.5 29.5t29.5 109.5t-30 112t-66 32q-37 0 -67 -31t-30 -113z" />
<glyph unicode="&#xb1;" d="M133 0v246h840v-246h-840zM133 537v241h289v289h262v-289h289v-241h-289v-197h-262v197h-289z" />
<glyph unicode="&#xb2;" horiz-adv-x="778" d="M94 1421q8 39 29.5 82t58.5 77t89.5 56.5t123.5 22.5q55 0 106.5 -14.5t91.5 -43t64.5 -74.5t24.5 -110q0 -78 -26.5 -127t-86.5 -104l-157 -146h262v-180h-561v180l272 242q35 31 55.5 60.5t20.5 76.5q0 33 -17.5 52.5t-50.5 19.5q-37 0 -59.5 -24.5t-30.5 -63.5z" />
<glyph unicode="&#xb3;" horiz-adv-x="778" d="M88 1444q29 104 114 159.5t195 55.5q43 0 90.5 -10.5t86 -34t63.5 -64.5t25 -102q0 -53 -28 -99t-106 -65q66 -10 113 -59t47 -135q0 -59 -25.5 -104.5t-66.5 -76t-93 -46t-108 -15.5q-68 0 -120 18.5t-90 48t-60.5 67.5t-30.5 79l205 18q8 -29 27.5 -48t56.5 -19 t59.5 25.5t22.5 66.5q0 53 -27.5 73.5t-75.5 20.5h-40v152h51q27 0 52.5 16t25.5 59q0 37 -20.5 54.5t-51.5 17.5q-35 0 -55.5 -21.5t-30.5 -50.5z" />
<glyph unicode="&#xb4;" horiz-adv-x="649" d="M61 1225l205 280h322l-312 -280h-215z" />
<glyph unicode="&#xb5;" horiz-adv-x="1177" d="M143 -348v1454h287v-735q0 -92 27.5 -137.5t120.5 -45.5q49 0 91 13.5t79 36.5v868h286v-1106h-194l-52 106q-39 -59 -91 -92.5t-138 -33.5q-57 0 -129 22v-350h-287z" />
<glyph unicode="&#xb6;" horiz-adv-x="1126" d="M82 1100q0 113 40 178t96 100t115.5 45.5t98.5 10.5h238v-1434h-238v768q-39 0 -98.5 7t-115.5 40t-96 99.5t-40 185.5zM766 0v1434h238v-1434h-238z" />
<glyph unicode="&#xb7;" horiz-adv-x="645" d="M174 522v277h297v-277h-297z" />
<glyph unicode="&#xb8;" horiz-adv-x="624" d="M61 -449l76 140q18 -12 51 -24.5t70 -12.5q47 0 67.5 19.5t20.5 43.5q0 43 -41 63.5t-115 29.5l82 313h168l-24 -227q78 -23 112.5 -74.5t34.5 -112.5q0 -106 -68.5 -165.5t-205.5 -59.5q-63 0 -121.5 18.5t-106.5 48.5z" />
<glyph unicode="&#xb9;" horiz-adv-x="778" d="M115 1339v187l188 112h215v-614h144v-164h-533v164h182v428z" />
<glyph unicode="&#xba;" horiz-adv-x="1013" d="M123 1067q0 127 32.5 212t87 135t124 70.5t141.5 20.5t140.5 -20.5t122.5 -70.5t87 -134t33 -213t-33 -212t-87 -132t-122.5 -67.5t-140.5 -18.5t-141.5 19.5t-124 68.5t-87 132t-32.5 210zM158 0v236h712v-236h-712zM379 1067q0 -84 9 -136t26.5 -81t42 -40t53.5 -11 t52.5 11t39.5 40t25.5 81t9.5 136q0 82 -9.5 135t-26.5 84t-40.5 42t-52.5 11t-53.5 -11t-41 -42t-25.5 -84t-9 -135z" />
<glyph unicode="&#xbb;" d="M102 1087h205l277 -419l-256 -461h-205l168 455zM543 1087h205l276 -419l-256 -461h-205l168 455z" />
<glyph unicode="&#xbc;" horiz-adv-x="1781" d="M117 1136v187l188 112h215v-614h144v-164h-533v164h182v428zM352 -205l917 1864h250l-915 -1864h-252zM1051 148v176l172 456h209l-162 -464h109l22 178h168v-178h94v-168h-94v-146h-203v146h-315z" />
<glyph unicode="&#xbd;" horiz-adv-x="1781" d="M103 1136v187l188 112h215v-614h144v-164h-533v164h182v428zM336 -205l917 1864h250l-915 -1864h-252zM1091 563q8 39 29.5 82t58.5 77t89.5 56.5t123.5 22.5q55 0 106.5 -14.5t91.5 -43t64.5 -74.5t24.5 -110q0 -78 -26.5 -127t-86.5 -104l-157 -146h262v-180h-561v180 l272 242q35 31 55.5 60.5t20.5 76.5q0 33 -17.5 52.5t-50.5 19.5q-37 0 -59.5 -24.5t-30.5 -63.5z" />
<glyph unicode="&#xbe;" horiz-adv-x="1781" d="M125 1241q29 104 114 159.5t195 55.5q43 0 90.5 -10.5t86 -34t63.5 -64.5t25 -102q0 -53 -28 -99t-106 -65q66 -10 113 -59t47 -135q0 -59 -25.5 -104.5t-66.5 -76t-93 -46t-108 -15.5q-68 0 -120 18.5t-90 48t-60.5 67.5t-30.5 79l205 18q8 -29 27.5 -48t56.5 -19 t59.5 25.5t22.5 66.5q0 53 -27.5 73.5t-75.5 20.5h-40v152h51q27 0 52.5 16t25.5 59q0 37 -20.5 54.5t-51.5 17.5q-35 0 -55.5 -21.5t-30.5 -50.5zM346 -205l917 1864h250l-915 -1864h-252zM1045 148v176l172 456h209l-162 -464h109l22 178h168v-178h94v-168h-94v-146h-203 v146h-315z" />
<glyph unicode="&#xbf;" horiz-adv-x="1064" d="M92 -31q0 104 44 175t98.5 126.5t98.5 104.5t44 110v129h285v-188q0 -51 -20.5 -93t-50.5 -79t-66 -69.5t-65.5 -66.5t-50 -71t-20.5 -82q0 -86 42 -119.5t97 -33.5q61 0 105.5 48t54.5 128l285 -35q-18 -66 -51 -128.5t-87.5 -112.5t-134 -80.5t-190.5 -30.5 q-86 0 -162 22.5t-132 67.5t-90 114.5t-34 163.5zM365 819v287h307v-287h-307z" />
<glyph unicode="&#xc0;" horiz-adv-x="1282" d="M10 0l453 1475h350l459 -1475h-326l-90 342h-455l-90 -342h-301zM366 1812h312l174 -239h-219zM459 551h342l-170 645z" />
<glyph unicode="&#xc1;" horiz-adv-x="1282" d="M10 0l453 1475h350l459 -1475h-326l-90 342h-455l-90 -342h-301zM383 1573l175 239h311l-266 -239h-220zM459 551h342l-170 645z" />
<glyph unicode="&#xc2;" horiz-adv-x="1282" d="M10 0l453 1475h350l459 -1475h-326l-90 342h-455l-90 -342h-301zM276 1573l246 239h279l245 -239h-266l-119 102l-116 -102h-269zM459 551h342l-170 645z" />
<glyph unicode="&#xc3;" horiz-adv-x="1282" d="M10 0l453 1475h350l459 -1475h-326l-90 342h-455l-90 -342h-301zM319 1557v204q45 33 95.5 50.5t93.5 17.5q49 0 84 -12.5t63.5 -26.5t56 -26.5t62.5 -12.5t85 19.5t95 54.5v-205q-45 -33 -95 -50.5t-93 -17.5q-49 0 -84 12.5t-63.5 27t-56.5 26.5t-62 12 q-35 0 -85.5 -19.5t-95.5 -53.5zM459 551h342l-170 645z" />
<glyph unicode="&#xc4;" horiz-adv-x="1282" d="M10 0l453 1475h350l459 -1475h-326l-90 342h-455l-90 -342h-301zM274 1581v221h271v-221h-271zM459 551h342l-170 645zM739 1581v221h271v-221h-271z" />
<glyph unicode="&#xc5;" horiz-adv-x="1282" d="M10 0l451 1466q-88 64 -88 195q0 117 71.5 180.5t200.5 63.5t199.5 -63.5t70.5 -180.5q0 -66 -26.5 -115t-73.5 -80l457 -1466h-326l-90 342h-455l-90 -342h-301zM459 551h342l-170 645zM573 1661q0 -47 20.5 -70.5t51.5 -23.5q33 0 52.5 22.5t19.5 71.5t-20.5 73.5 t-51.5 24.5t-51.5 -25.5t-20.5 -72.5z" />
<glyph unicode="&#xc6;" horiz-adv-x="1779" d="M10 0l531 1475h1075v-236h-645l80 -385h524v-221h-477l84 -402h495v-231h-749l-66 342h-450l-113 -342h-289zM479 551h344l-123 666z" />
<glyph unicode="&#xc7;" horiz-adv-x="1234" d="M123 737q0 229 48 379t126 236t179.5 119.5t205.5 33.5q113 0 196 -37.5t140 -97t89 -133.5t44 -145l-285 -35q-8 49 -21.5 90t-36 71.5t-55 48t-77.5 17.5q-47 0 -88 -24.5t-74 -86t-51.5 -168t-18.5 -268.5q0 -164 17.5 -269.5t47.5 -166.5t71 -84.5t90 -23.5 q92 0 144 67.5t60 173.5l289 -31q-8 -59 -32.5 -125.5t-69.5 -126t-112.5 -104.5t-162.5 -63l-8 -88q78 -23 113 -74.5t35 -112.5q0 -106 -72 -166.5t-209 -60.5q-63 0 -121.5 18.5t-105.5 48.5l76 146q18 -12 51 -24.5t69 -12.5q47 0 65.5 17.5t18.5 41.5q0 43 -38.5 62.5 t-112.5 27.5l43 166q-90 10 -174 50t-149.5 128.5t-104.5 230.5t-39 355z" />
<glyph unicode="&#xc8;" horiz-adv-x="1054" d="M164 0v1475h788v-236h-481v-385h420v-221h-420v-402h481v-231h-788zM221 1812h312l174 -239h-219z" />
<glyph unicode="&#xc9;" horiz-adv-x="1054" d="M164 0v1475h788v-236h-481v-385h420v-221h-420v-402h481v-231h-788zM344 1579l175 239h311l-266 -239h-220z" />
<glyph unicode="&#xca;" horiz-adv-x="1060" d="M164 0v1475h788v-236h-481v-385h420v-221h-420v-402h481v-231h-788zM188 1573l246 239h279l245 -239h-266l-119 102l-116 -102h-269z" />
<glyph unicode="&#xcb;" horiz-adv-x="1054" d="M164 0v1475h788v-236h-481v-385h420v-221h-420v-402h481v-231h-788zM192 1581v221h271v-221h-271zM657 1581v221h271v-221h-271z" />
<glyph unicode="&#xcc;" horiz-adv-x="634" d="M26 1812h312l174 -239h-219zM164 0v1475h307v-1475h-307z" />
<glyph unicode="&#xcd;" horiz-adv-x="634" d="M98 1573l175 239h311l-266 -239h-220zM164 0v1475h307v-1475h-307z" />
<glyph unicode="&#xce;" horiz-adv-x="634" d="M-66 1573l246 239h279l245 -239h-266l-119 102l-116 -102h-269zM164 0v1475h307v-1475h-307z" />
<glyph unicode="&#xcf;" horiz-adv-x="634" d="M-50 1581v221h271v-221h-271zM164 0v1475h307v-1475h-307zM415 1581v221h271v-221h-271z" />
<glyph unicode="&#xd0;" horiz-adv-x="1343" d="M61 688v225h123v562h383q131 0 250 -32t208 -115t142.5 -225t53.5 -366q0 -223 -53.5 -365.5t-142.5 -225.5t-207 -114.5t-247 -31.5h-387v688h-123zM492 223h79q61 0 122 19.5t109 75t77.5 155.5t29.5 264q0 162 -30.5 263.5t-78.5 157.5t-109.5 75.5t-123.5 19.5h-75 v-340h256v-225h-256v-465z" />
<glyph unicode="&#xd1;" horiz-adv-x="1368" d="M164 0v1475h391l393 -1057v1057h256v-1475h-364l-418 1071v-1071h-258zM370 1565v204q45 33 95.5 50.5t93.5 17.5q49 0 84 -12.5t63.5 -26.5t56 -26.5t62.5 -12.5t85 19.5t95 54.5v-205q-45 -33 -95 -50.5t-93 -17.5q-49 0 -84 12.5t-63.5 27t-56.5 26.5t-62 12 q-35 0 -85.5 -19.5t-95.5 -53.5z" />
<glyph unicode="&#xd2;" horiz-adv-x="1398" d="M123 737q0 215 44 361.5t121 236.5t182 130t228 40t228.5 -40t183.5 -130t122 -236.5t44 -361.5t-44 -361.5t-121 -236.5t-182.5 -130t-230.5 -40t-230.5 40t-182 130t-119.5 236.5t-43 361.5zM333 1812h312l174 -239h-219zM436 737q0 -156 18.5 -260t52.5 -166.5t83 -89 t108 -26.5t108.5 26.5t84.5 90t53.5 168t18.5 257.5q0 154 -20.5 258.5t-55.5 168t-84 91t-105 27.5q-55 0 -103 -26.5t-84 -90t-55.5 -168t-19.5 -260.5z" />
<glyph unicode="&#xd3;" horiz-adv-x="1398" d="M123 737q0 215 44 361.5t121 236.5t182 130t228 40t228.5 -40t183.5 -130t122 -236.5t44 -361.5t-44 -361.5t-121 -236.5t-182.5 -130t-230.5 -40t-230.5 40t-182 130t-119.5 236.5t-43 361.5zM436 737q0 -156 18.5 -260t52.5 -166.5t83 -89t108 -26.5t108.5 26.5 t84.5 90t53.5 168t18.5 257.5q0 154 -20.5 258.5t-55.5 168t-84 91t-105 27.5q-55 0 -103 -26.5t-84 -90t-55.5 -168t-19.5 -260.5zM520 1573l175 239h311l-266 -239h-220z" />
<glyph unicode="&#xd4;" horiz-adv-x="1398" d="M123 737q0 215 44 361.5t121 236.5t182 130t228 40t228.5 -40t183.5 -130t122 -236.5t44 -361.5t-44 -361.5t-121 -236.5t-182.5 -130t-230.5 -40t-230.5 40t-182 130t-119.5 236.5t-43 361.5zM333 1573l246 239h279l245 -239h-266l-119 102l-116 -102h-269zM436 737 q0 -156 18.5 -260t52.5 -166.5t83 -89t108 -26.5t108.5 26.5t84.5 90t53.5 168t18.5 257.5q0 154 -20.5 258.5t-55.5 168t-84 91t-105 27.5q-55 0 -103 -26.5t-84 -90t-55.5 -168t-19.5 -260.5z" />
<glyph unicode="&#xd5;" horiz-adv-x="1398" d="M123 737q0 215 44 361.5t121 236.5t182 130t228 40t228.5 -40t183.5 -130t122 -236.5t44 -361.5t-44 -361.5t-121 -236.5t-182.5 -130t-230.5 -40t-230.5 40t-182 130t-119.5 236.5t-43 361.5zM380 1561v204q45 33 95.5 50.5t93.5 17.5q49 0 84 -12.5t63.5 -26.5 t56 -26.5t62.5 -12.5t85 19.5t95 54.5v-205q-45 -33 -95 -50.5t-93 -17.5q-49 0 -84 12.5t-63.5 27t-56.5 26.5t-62 12q-35 0 -85.5 -19.5t-95.5 -53.5zM436 737q0 -156 18.5 -260t52.5 -166.5t83 -89t108 -26.5t108.5 26.5t84.5 90t53.5 168t18.5 257.5q0 154 -20.5 258.5 t-55.5 168t-84 91t-105 27.5q-55 0 -103 -26.5t-84 -90t-55.5 -168t-19.5 -260.5z" />
<glyph unicode="&#xd6;" horiz-adv-x="1398" d="M123 737q0 215 44 361.5t121 236.5t182 130t228 40t228.5 -40t183.5 -130t122 -236.5t44 -361.5t-44 -361.5t-121 -236.5t-182.5 -130t-230.5 -40t-230.5 40t-182 130t-119.5 236.5t-43 361.5zM333 1581v221h271v-221h-271zM436 737q0 -156 18.5 -260t52.5 -166.5t83 -89 t108 -26.5t108.5 26.5t84.5 90t53.5 168t18.5 257.5q0 154 -20.5 258.5t-55.5 168t-84 91t-105 27.5q-55 0 -103 -26.5t-84 -90t-55.5 -168t-19.5 -260.5zM798 1581v221h271v-221h-271z" />
<glyph unicode="&#xd7;" d="M133 412l246 245l-246 246l174 174l246 -246l246 246l174 -174l-246 -246l246 -245l-174 -174l-246 245l-246 -245z" />
<glyph unicode="&#xd8;" horiz-adv-x="1398" d="M123 737q0 215 44 361.5t121 236.5t182 130t228 40q82 0 156 -18l72 192h235l-106 -288q102 -86 161.5 -244t59.5 -410q0 -215 -44 -361.5t-121 -236.5t-182.5 -130t-230.5 -40q-86 0 -161 19l-74 -197h-236l109 297q-98 86 -155.5 243.5t-57.5 405.5zM436 737 q0 -117 10.5 -199.5t28.5 -146.5l322 866q-47 25 -99 25q-55 0 -103 -26.5t-84 -90t-55.5 -168t-19.5 -260.5zM592 219q45 -25 106 -24q59 0 108.5 26.5t84.5 90t53.5 167.5t18.5 258q0 123 -12.5 210t-35.5 151z" />
<glyph unicode="&#xd9;" horiz-adv-x="1316" d="M154 457v1018h307v-1037q0 -78 18.5 -125t47 -73.5t65.5 -35.5t72 -9t71.5 9t66 35.5t48 73.5t18.5 125v1037h295v-1018q0 -242 -127 -365t-374 -123q-248 0 -378 123t-130 365zM301 1812h312l174 -239h-219z" />
<glyph unicode="&#xda;" horiz-adv-x="1316" d="M154 457v1018h307v-1037q0 -78 18.5 -125t47 -73.5t65.5 -35.5t72 -9t71.5 9t66 35.5t48 73.5t18.5 125v1037h295v-1018q0 -242 -127 -365t-374 -123q-248 0 -378 123t-130 365zM514 1573l175 239h311l-266 -239h-220z" />
<glyph unicode="&#xdb;" horiz-adv-x="1316" d="M154 457v1018h307v-1037q0 -78 18.5 -125t47 -73.5t65.5 -35.5t72 -9t71.5 9t66 35.5t48 73.5t18.5 125v1037h295v-1018q0 -242 -127 -365t-374 -123q-248 0 -378 123t-130 365zM301 1569l246 239h279l245 -239h-266l-119 102l-116 -102h-269z" />
<glyph unicode="&#xdc;" horiz-adv-x="1316" d="M154 457v1018h307v-1037q0 -78 18.5 -125t47 -73.5t65.5 -35.5t72 -9t71.5 9t66 35.5t48 73.5t18.5 125v1037h295v-1018q0 -242 -127 -365t-374 -123q-248 0 -378 123t-130 365zM297 1581v221h271v-221h-271zM762 1581v221h271v-221h-271z" />
<glyph unicode="&#xdd;" horiz-adv-x="1150" d="M10 1475h332l246 -592l266 592h287l-418 -885v-590h-287v590zM448 1573l175 239h311l-266 -239h-220z" />
<glyph unicode="&#xde;" horiz-adv-x="1245" d="M164 0v1475h307v-226h88q115 0 217.5 -19.5t179 -72.5t121.5 -148.5t45 -246.5q0 -152 -46 -247t-121.5 -148.5t-176 -73t-207.5 -19.5h-100v-274h-307zM471 494h104q39 0 80 10t74 38.5t53.5 81t20.5 138.5t-19.5 138t-53.5 81t-77 39t-90 10h-92v-536z" />
<glyph unicode="&#xdf;" horiz-adv-x="1253" d="M143 0v1092q0 215 126 324.5t335 109.5q82 0 156 -22.5t130 -65.5t90 -107.5t34 -148.5q0 -102 -49 -215q-66 -10 -106 -34t-40 -79q0 -23 6 -39t24.5 -33.5t51.5 -38t86 -51.5q104 -59 149.5 -143.5t45.5 -190.5q0 -88 -29 -157.5t-81 -118.5t-123.5 -75.5t-157.5 -26.5 q-68 0 -119 15t-90 38.5t-66 52.5t-43 55l168 152q20 -35 52 -63.5t85 -28.5q55 0 91 37.5t36 107.5q0 33 -7 58.5t-23.5 49t-46 46t-72.5 47.5q-35 20 -69 43.5t-60.5 54.5t-43 72t-16.5 96q0 94 50.5 160.5t127.5 89.5q8 27 13.5 62.5t5.5 64.5q0 61 -43 103t-117 42 t-123 -43t-49 -162v-1130h-289z" />
<glyph unicode="&#xe0;" horiz-adv-x="1116" d="M82 324q0 84 32.5 148.5t89 110.5t130.5 72.5t158 36.5l194 27v67q0 160 -137 160q-57 0 -99 -33.5t-53 -105.5l-276 41q16 51 48 103.5t85 93t130 66.5t185 26q193 0 298.5 -92.5t105.5 -294.5v-750h-182l-64 119q-43 -59 -115.5 -99t-185.5 -40q-55 0 -115.5 18 t-112 59t-84 106.5t-32.5 160.5zM237 1505h322l205 -280h-215zM367 354q0 -53 15 -87t39.5 -52t55.5 -25.5t60 -7.5q74 0 149 51v316l-117 -19q-92 -16 -147 -55t-55 -121z" />
<glyph unicode="&#xe1;" horiz-adv-x="1116" d="M82 324q0 84 32.5 148.5t89 110.5t130.5 72.5t158 36.5l194 27v67q0 160 -137 160q-57 0 -99 -33.5t-53 -105.5l-276 41q16 51 48 103.5t85 93t130 66.5t185 26q193 0 298.5 -92.5t105.5 -294.5v-750h-182l-64 119q-43 -59 -115.5 -99t-185.5 -40q-55 0 -115.5 18 t-112 59t-84 106.5t-32.5 160.5zM367 354q0 -53 15 -87t39.5 -52t55.5 -25.5t60 -7.5q74 0 149 51v316l-117 -19q-92 -16 -147 -55t-55 -121zM383 1225l205 280h322l-312 -280h-215z" />
<glyph unicode="&#xe2;" horiz-adv-x="1116" d="M82 324q0 84 32.5 148.5t89 110.5t130.5 72.5t158 36.5l194 27v67q0 160 -137 160q-57 0 -99 -33.5t-53 -105.5l-276 41q16 51 48 103.5t85 93t130 66.5t185 26q193 0 298.5 -92.5t105.5 -294.5v-750h-182l-64 119q-43 -59 -115.5 -99t-185.5 -40q-55 0 -115.5 18 t-112 59t-84 106.5t-32.5 160.5zM159 1225l246 280h279l245 -280h-249l-136 116l-135 -116h-250zM367 354q0 -53 15 -87t39.5 -52t55.5 -25.5t60 -7.5q74 0 149 51v316l-117 -19q-92 -16 -147 -55t-55 -121z" />
<glyph unicode="&#xe3;" horiz-adv-x="1116" d="M82 324q0 84 32.5 148.5t89 110.5t130.5 72.5t158 36.5l194 27v67q0 160 -137 160q-57 0 -99 -33.5t-53 -105.5l-276 41q16 51 48 103.5t85 93t130 66.5t185 26q193 0 298.5 -92.5t105.5 -294.5v-750h-182l-64 119q-43 -59 -115.5 -99t-185.5 -40q-55 0 -115.5 18 t-112 59t-84 106.5t-32.5 160.5zM231 1257v205q45 33 95.5 50.5t93.5 17.5q49 0 84 -12.5t63.5 -26.5t56 -26.5t62.5 -12.5t85 19.5t95 54.5v-205q-45 -33 -95 -50.5t-93 -17.5q-49 0 -84 12.5t-63.5 27t-56.5 26.5t-62 12q-35 0 -85.5 -19.5t-95.5 -54.5zM367 354 q0 -53 15 -87t39.5 -52t55.5 -25.5t60 -7.5q74 0 149 51v316l-117 -19q-92 -16 -147 -55t-55 -121z" />
<glyph unicode="&#xe4;" horiz-adv-x="1116" d="M82 324q0 84 32.5 148.5t89 110.5t130.5 72.5t158 36.5l194 27v67q0 160 -137 160q-57 0 -99 -33.5t-53 -105.5l-276 41q16 51 48 103.5t85 93t130 66.5t185 26q193 0 298.5 -92.5t105.5 -294.5v-750h-182l-64 119q-43 -59 -115.5 -99t-185.5 -40q-55 0 -115.5 18 t-112 59t-84 106.5t-32.5 160.5zM182 1249v236h271v-236h-271zM367 354q0 -53 15 -87t39.5 -52t55.5 -25.5t60 -7.5q74 0 149 51v316l-117 -19q-92 -16 -147 -55t-55 -121zM647 1249v236h271v-236h-271z" />
<glyph unicode="&#xe5;" horiz-adv-x="1116" d="M82 324q0 84 32.5 148.5t89 110.5t130.5 72.5t158 36.5l194 27v67q0 160 -137 160q-57 0 -99 -33.5t-53 -105.5l-276 41q16 51 48 103.5t85 93t130 66.5t185 26q193 0 298.5 -92.5t105.5 -294.5v-750h-182l-64 119q-43 -59 -115.5 -99t-185.5 -40q-55 0 -115.5 18 t-112 59t-84 106.5t-32.5 160.5zM274 1415q0 117 72 180.5t201 63.5t199.5 -63.5t70.5 -180.5t-77.5 -178t-202.5 -61t-194 61t-69 178zM367 354q0 -53 15 -87t39.5 -52t55.5 -25.5t60 -7.5q74 0 149 51v316l-117 -19q-92 -16 -147 -55t-55 -121zM475 1415q0 -47 20.5 -70.5 t51.5 -23.5q33 0 52.5 22.5t19.5 71.5t-20.5 73.5t-51.5 24.5t-51.5 -25.5t-20.5 -72.5z" />
<glyph unicode="&#xe6;" horiz-adv-x="1681" d="M82 324q0 84 32.5 148.5t89 110.5t130.5 72.5t158 36.5l194 27v67q0 160 -137 160q-57 0 -99 -33.5t-53 -105.5l-276 41q16 51 47 103.5t83 93t130 66.5t188 26q98 0 168 -30t113 -83q106 113 285 113q131 0 217 -44t138 -130t73.5 -210t21.5 -284h-620 q6 -86 23.5 -141.5t42 -87t55 -43t65.5 -11.5q70 0 109.5 39t52.5 99l260 -41q-16 -55 -49 -109.5t-86.5 -97.5t-128 -69.5t-174.5 -26.5q-111 0 -193 41.5t-137 134.5q-55 -86 -141 -129t-224 -43q-66 0 -130 18t-115.5 58t-82 104.5t-30.5 159.5zM367 354q0 -53 15 -85.5 t39.5 -51t55.5 -25t60 -6.5q33 0 71.5 12.5t77.5 37.5v313l-117 -19q-92 -12 -147 -55t-55 -121zM961 657h356q-2 86 -15.5 143.5t-37 91.5t-54 47t-67.5 13q-35 0 -65.5 -10t-55.5 -42t-41 -90t-20 -153z" />
<glyph unicode="&#xe7;" horiz-adv-x="1081" d="M109 563q0 158 34.5 267.5t97 177t147.5 98.5t183 31q117 0 196 -34t128 -87t73.5 -116.5t30.5 -121.5l-272 -41q-8 199 -154 199q-31 0 -60.5 -12.5t-54 -52.5t-38.5 -114.5t-14 -199.5t16 -198.5t40.5 -113.5t55.5 -52.5t60 -12.5q39 0 66.5 16.5t45 43t26.5 62.5 t13 75l283 -33q-10 -57 -34 -114.5t-64 -106.5t-99 -85t-141 -50l-10 -92q78 -23 112.5 -74.5t34.5 -112.5q0 -106 -68.5 -165.5t-205.5 -59.5q-63 0 -122 18.5t-106 48.5l76 140q18 -12 51 -24.5t70 -12.5q47 0 67.5 19.5t20.5 43.5q0 43 -41 63.5t-115 29.5l45 176 q-78 10 -145.5 45t-118.5 102.5t-80.5 173t-29.5 256.5z" />
<glyph unicode="&#xe8;" horiz-adv-x="1118" d="M109 553q0 162 35.5 273.5t99 180t147.5 99.5t180 31q131 0 217 -44t138.5 -130t74 -210t21.5 -284h-621q6 -86 23.5 -141.5t42.5 -87t55.5 -43t65.5 -11.5q70 0 109.5 39t52.5 99l260 -41q-16 -55 -49 -109.5t-86.5 -97.5t-128 -69.5t-175.5 -26.5q-94 0 -178 30.5 t-147.5 98t-100 177t-36.5 267.5zM229 1505h322l205 -280h-215zM397 657h357q-2 86 -15.5 143.5t-37 91.5t-54 47t-67.5 13q-35 0 -66 -10t-55.5 -42t-41 -90t-20.5 -153z" />
<glyph unicode="&#xe9;" horiz-adv-x="1118" d="M109 553q0 162 35.5 273.5t99 180t147.5 99.5t180 31q131 0 217 -44t138.5 -130t74 -210t21.5 -284h-621q6 -86 23.5 -141.5t42.5 -87t55.5 -43t65.5 -11.5q70 0 109.5 39t52.5 99l260 -41q-16 -55 -49 -109.5t-86.5 -97.5t-128 -69.5t-175.5 -26.5q-94 0 -178 30.5 t-147.5 98t-100 177t-36.5 267.5zM383 1225l205 280h322l-312 -280h-215zM397 657h357q-2 86 -15.5 143.5t-37 91.5t-54 47t-67.5 13q-35 0 -66 -10t-55.5 -42t-41 -90t-20.5 -153z" />
<glyph unicode="&#xea;" horiz-adv-x="1118" d="M109 553q0 162 35.5 273.5t99 180t147.5 99.5t180 31q131 0 217 -44t138.5 -130t74 -210t21.5 -284h-621q6 -86 23.5 -141.5t42.5 -87t55.5 -43t65.5 -11.5q70 0 109.5 39t52.5 99l260 -41q-16 -55 -49 -109.5t-86.5 -97.5t-128 -69.5t-175.5 -26.5q-94 0 -178 30.5 t-147.5 98t-100 177t-36.5 267.5zM194 1225l246 280h279l245 -280h-249l-136 116l-135 -116h-250zM397 657h357q-2 86 -15.5 143.5t-37 91.5t-54 47t-67.5 13q-35 0 -66 -10t-55.5 -42t-41 -90t-20.5 -153z" />
<glyph unicode="&#xeb;" horiz-adv-x="1118" d="M109 553q0 162 35.5 273.5t99 180t147.5 99.5t180 31q131 0 217 -44t138.5 -130t74 -210t21.5 -284h-621q6 -86 23.5 -141.5t42.5 -87t55.5 -43t65.5 -11.5q70 0 109.5 39t52.5 99l260 -41q-16 -55 -49 -109.5t-86.5 -97.5t-128 -69.5t-175.5 -26.5q-94 0 -178 30.5 t-147.5 98t-100 177t-36.5 267.5zM211 1249v236h271v-236h-271zM397 657h357q-2 86 -15.5 143.5t-37 91.5t-54 47t-67.5 13q-35 0 -66 -10t-55.5 -42t-41 -90t-20.5 -153zM676 1249v236h271v-236h-271z" />
<glyph unicode="&#xec;" horiz-adv-x="573" d="M-27 1505h322l205 -280h-215zM143 0v1106h287v-1106h-287z" />
<glyph unicode="&#xed;" horiz-adv-x="573" d="M73 1225l205 280h322l-312 -280h-215zM143 0v1106h287v-1106h-287z" />
<glyph unicode="&#xee;" horiz-adv-x="573" d="M-97 1225l246 280h279l245 -280h-249l-136 116l-135 -116h-250zM143 0v1106h287v-1106h-287z" />
<glyph unicode="&#xef;" horiz-adv-x="573" d="M-78 1249v236h271v-236h-271zM143 0v1106h287v-1106h-287zM387 1249v236h271v-236h-271z" />
<glyph unicode="&#xf0;" horiz-adv-x="1118" d="M113 483q0 242 100 364t266 122q76 0 130.5 -23.5t95.5 -62.5q-16 86 -51.5 147.5t-82.5 108.5l-59 -62h-229l151 160q-53 27 -110.5 45t-122.5 35l96 188q66 -12 144.5 -32.5t160.5 -61.5l60 64h229l-146 -152q57 -45 106.5 -104.5t86.5 -139.5t57.5 -179t20.5 -224 q0 -197 -33 -330t-93.5 -215t-144 -116.5t-186.5 -34.5q-96 0 -178 27.5t-141.5 87t-93 155.5t-33.5 233zM403 475q0 -96 15.5 -153.5t39 -88t51.5 -40t52 -9.5q29 0 56.5 12.5t50 62.5t37 149.5t16.5 275.5q-82 64 -160 64q-31 0 -59.5 -13.5t-50 -44.5t-35 -83t-13.5 -132 z" />
<glyph unicode="&#xf1;" horiz-adv-x="1191" d="M143 0v1106h195l61 -129q53 76 128 118t180 42q76 0 138 -22.5t107 -71t71 -124t26 -182.5v-737h-287v745q0 92 -32 137.5t-124 45.5q-53 0 -96 -22.5t-80 -57.5v-848h-287zM284 1249v205q45 33 95.5 50.5t93.5 17.5q49 0 84 -12.5t63.5 -26.5t56 -26.5t62.5 -12.5 t85 19.5t95 54.5v-205q-45 -33 -95 -50.5t-93 -17.5q-49 0 -84 12.5t-63.5 27t-56.5 26.5t-62 12q-35 0 -85.5 -19.5t-95.5 -54.5z" />
<glyph unicode="&#xf2;" horiz-adv-x="1198" d="M109 553q0 170 43 282.5t112.5 179t157.5 94.5t178 28t178 -27t157 -93.5t112 -179t43 -284.5t-43 -282.5t-112 -175t-157 -90t-178 -25.5t-178 25.5t-157.5 91t-112.5 176t-43 280.5zM249 1505h322l205 -280h-215zM403 553q0 -117 13.5 -189.5t40 -114.5t62.5 -56.5 t83 -14.5q45 0 82 14.5t61.5 55.5t38 113.5t13.5 191.5t-13.5 193.5t-39 117.5t-62.5 58.5t-82 15.5q-47 0 -83 -16.5t-61.5 -59.5t-39 -117.5t-13.5 -191.5z" />
<glyph unicode="&#xf3;" horiz-adv-x="1198" d="M109 553q0 170 43 282.5t112.5 179t157.5 94.5t178 28t178 -27t157 -93.5t112 -179t43 -284.5t-43 -282.5t-112 -175t-157 -90t-178 -25.5t-178 25.5t-157.5 91t-112.5 176t-43 280.5zM403 553q0 -117 13.5 -189.5t40 -114.5t62.5 -56.5t83 -14.5q45 0 82 14.5t61.5 55.5 t38 113.5t13.5 191.5t-13.5 193.5t-39 117.5t-62.5 58.5t-82 15.5q-47 0 -83 -16.5t-61.5 -59.5t-39 -117.5t-13.5 -191.5zM440 1225l205 280h322l-312 -280h-215z" />
<glyph unicode="&#xf4;" horiz-adv-x="1198" d="M109 553q0 170 43 282.5t112.5 179t157.5 94.5t178 28t178 -27t157 -93.5t112 -179t43 -284.5t-43 -282.5t-112 -175t-157 -90t-178 -25.5t-178 25.5t-157.5 91t-112.5 176t-43 280.5zM217 1225l246 280h279l245 -280h-249l-136 116l-135 -116h-250zM403 553 q0 -117 13.5 -189.5t40 -114.5t62.5 -56.5t83 -14.5q45 0 82 14.5t61.5 55.5t38 113.5t13.5 191.5t-13.5 193.5t-39 117.5t-62.5 58.5t-82 15.5q-47 0 -83 -16.5t-61.5 -59.5t-39 -117.5t-13.5 -191.5z" />
<glyph unicode="&#xf5;" horiz-adv-x="1198" d="M109 553q0 170 43 282.5t112.5 179t157.5 94.5t178 28t178 -27t157 -93.5t112 -179t43 -284.5t-43 -282.5t-112 -175t-157 -90t-178 -25.5t-178 25.5t-157.5 91t-112.5 176t-43 280.5zM288 1253v205q45 33 95.5 50.5t93.5 17.5q49 0 84 -12.5t63.5 -26.5t56 -26.5 t62.5 -12.5t85 19.5t95 54.5v-205q-45 -33 -95 -50.5t-93 -17.5q-49 0 -84 12.5t-63.5 27t-56.5 26.5t-62 12q-35 0 -85.5 -19.5t-95.5 -54.5zM403 553q0 -117 13.5 -189.5t40 -114.5t62.5 -56.5t83 -14.5q45 0 82 14.5t61.5 55.5t38 113.5t13.5 191.5t-13.5 193.5 t-39 117.5t-62.5 58.5t-82 15.5q-47 0 -83 -16.5t-61.5 -59.5t-39 -117.5t-13.5 -191.5z" />
<glyph unicode="&#xf6;" horiz-adv-x="1198" d="M109 553q0 170 43 282.5t112.5 179t157.5 94.5t178 28t178 -27t157 -93.5t112 -179t43 -284.5t-43 -282.5t-112 -175t-157 -90t-178 -25.5t-178 25.5t-157.5 91t-112.5 176t-43 280.5zM233 1249v236h271v-236h-271zM403 553q0 -117 13.5 -189.5t40 -114.5t62.5 -56.5 t83 -14.5q45 0 82 14.5t61.5 55.5t38 113.5t13.5 191.5t-13.5 193.5t-39 117.5t-62.5 58.5t-82 15.5q-47 0 -83 -16.5t-61.5 -59.5t-39 -117.5t-13.5 -191.5zM698 1249v236h271v-236h-271z" />
<glyph unicode="&#xf7;" d="M133 535v245h840v-245h-840zM406 104v277h296v-277h-296zM406 934v276h296v-276h-296z" />
<glyph unicode="&#xf8;" horiz-adv-x="1198" d="M109 553q0 170 43 282.5t112.5 179t157.5 94.5t178 28q41 0 81 -5.5t81 -17.5l82 182h225l-129 -284q68 -68 109 -177.5t41 -281.5t-43 -282.5t-112 -175t-157 -90t-178 -25.5q-82 0 -137 14l-90 -203h-230l133 293q-76 66 -121.5 177.5t-45.5 291.5zM403 553 q0 -154 21 -227l268 589q-41 23 -92 23q-47 0 -83 -16.5t-61.5 -59.5t-39 -117.5t-13.5 -191.5zM526 188q35 -10 76 -10q45 0 82 14.5t61.5 55.5t38 113.5t13.5 191.5q0 63 -3 113.5t-12 85.5z" />
<glyph unicode="&#xf9;" horiz-adv-x="1177" d="M143 389v717h287v-729q0 -92 28.5 -140.5t121.5 -48.5q51 0 92 22.5t76 57.5v838h286v-1106h-194l-64 133q-47 -72 -119.5 -112.5t-177.5 -40.5q-152 0 -244 98t-92 311zM239 1505h322l205 -280h-215z" />
<glyph unicode="&#xfa;" horiz-adv-x="1177" d="M143 389v717h287v-729q0 -92 28.5 -140.5t121.5 -48.5q51 0 92 22.5t76 57.5v838h286v-1106h-194l-64 133q-47 -72 -119.5 -112.5t-177.5 -40.5q-152 0 -244 98t-92 311zM407 1225l205 280h322l-312 -280h-215z" />
<glyph unicode="&#xfb;" horiz-adv-x="1177" d="M143 389v717h287v-729q0 -92 28.5 -140.5t121.5 -48.5q51 0 92 22.5t76 57.5v838h286v-1106h-194l-64 133q-47 -72 -119.5 -112.5t-177.5 -40.5q-152 0 -244 98t-92 311zM200 1213l246 280h279l245 -280h-249l-136 116l-135 -116h-250z" />
<glyph unicode="&#xfc;" horiz-adv-x="1177" d="M143 389v717h287v-729q0 -92 28.5 -140.5t121.5 -48.5q51 0 92 22.5t76 57.5v838h286v-1106h-194l-64 133q-47 -72 -119.5 -112.5t-177.5 -40.5q-152 0 -244 98t-92 311zM225 1249v236h271v-236h-271zM690 1249v236h271v-236h-271z" />
<glyph unicode="&#xfd;" horiz-adv-x="1046" d="M10 1106h301l209 -877l238 877h278l-340 -1137q-25 -80 -53.5 -138t-69.5 -96t-99 -55.5t-142 -17.5q-41 0 -94.5 7t-90.5 18v204q37 -10 78 -14t64 -4q74 0 106.5 27.5t42.5 99.5h-94zM385 1225l205 280h322l-312 -280h-215z" />
<glyph unicode="&#xfe;" horiz-adv-x="1153" d="M143 -348v1853h287v-483q51 53 119.5 84t161.5 31q61 0 120.5 -25t106.5 -89.5t76.5 -176t29.5 -285.5q0 -305 -100 -443t-293 -138q-76 0 -130 22.5t-91 58.5v-409h-287zM430 225q29 -23 61.5 -36t75.5 -13q47 0 83 14.5t59.5 57.5t36 119.5t12.5 203.5 q0 111 -14.5 179.5t-37 105.5t-52 50.5t-62.5 13.5q-49 0 -88 -20.5t-74 -53.5v-621z" />
<glyph unicode="&#xff;" horiz-adv-x="1046" d="M10 1106h301l209 -877l238 877h278l-340 -1137q-25 -80 -53.5 -138t-69.5 -96t-99 -55.5t-142 -17.5q-41 0 -94.5 7t-90.5 18v204q37 -10 78 -14t64 -4q74 0 106.5 27.5t42.5 99.5h-94zM163 1249v236h271v-236h-271zM628 1249v236h271v-236h-271z" />
<glyph unicode="&#x152;" horiz-adv-x="1880" d="M123 737q0 215 44 361.5t121 236.5t182 130t228 40q106 0 203 -30h877v-236h-611q39 -72 62.5 -167t32.5 -218h454v-221h-454q-6 -129 -31 -228.5t-64 -173.5h611v-231h-875q-96 -31 -205 -31q-125 0 -230.5 40t-182 130t-119.5 236.5t-43 361.5zM436 737 q0 -156 18.5 -260t52.5 -166.5t83 -89t108 -26.5t108.5 26.5t84.5 90t53.5 168t18.5 257.5q0 154 -20.5 258.5t-55.5 168t-84 91t-105 27.5q-55 0 -103 -26.5t-84 -90t-55.5 -168t-19.5 -260.5z" />
<glyph unicode="&#x153;" horiz-adv-x="1806" d="M109 553q0 170 43 282.5t112.5 179t157.5 94.5t178 28q47 0 95 -8.5t93.5 -26t83 -46t66.5 -71.5q51 78 137 115t185 37q131 0 217 -44t138 -130t73.5 -210t21.5 -284h-620q6 -86 23 -141.5t42 -87t55.5 -43t65.5 -11.5q70 0 109.5 39t52.5 99l260 -41 q-16 -55 -49 -109.5t-86.5 -97.5t-128 -69.5t-174.5 -26.5q-98 0 -182.5 34.5t-137.5 112.5q-59 -84 -151.5 -115.5t-188.5 -31.5q-90 0 -178 25.5t-157.5 91t-112.5 176t-43 280.5zM403 553q0 -117 13.5 -189.5t40 -114.5t62.5 -56.5t83 -14.5q45 0 82 14.5t61.5 55.5 t38 113.5t13.5 191.5t-13.5 193.5t-39 117.5t-62.5 58.5t-82 15.5q-47 0 -83 -16.5t-61.5 -59.5t-39 -117.5t-13.5 -191.5zM1085 657h357q-2 86 -15.5 143.5t-37 91.5t-54 47t-67.5 13q-35 0 -66 -10t-55.5 -42t-40.5 -90t-21 -153z" />
<glyph unicode="&#x178;" horiz-adv-x="1150" d="M10 1475h332l246 -592l266 592h287l-418 -885v-590h-287v590zM221 1581v221h271v-221h-271zM686 1581v221h271v-221h-271z" />
<glyph unicode="&#x2c6;" horiz-adv-x="892" d="M61 1225l246 280h279l245 -280h-249l-136 116l-135 -116h-250z" />
<glyph unicode="&#x2dc;" horiz-adv-x="757" d="M61 1253v205q45 33 95.5 50.5t93.5 17.5q49 0 84 -12.5t63.5 -26.5t56 -26.5t62.5 -12.5t85 19.5t95 54.5v-205q-45 -33 -95 -50.5t-93 -17.5q-49 0 -84 12.5t-63.5 27t-56.5 26.5t-62 12q-35 0 -85.5 -19.5t-95.5 -54.5z" />
<glyph unicode="&#x2000;" horiz-adv-x="952" />
<glyph unicode="&#x2001;" horiz-adv-x="1905" />
<glyph unicode="&#x2002;" horiz-adv-x="952" />
<glyph unicode="&#x2003;" horiz-adv-x="1905" />
<glyph unicode="&#x2004;" horiz-adv-x="635" />
<glyph unicode="&#x2005;" horiz-adv-x="476" />
<glyph unicode="&#x2006;" horiz-adv-x="317" />
<glyph unicode="&#x2007;" horiz-adv-x="317" />
<glyph unicode="&#x2008;" horiz-adv-x="238" />
<glyph unicode="&#x2009;" horiz-adv-x="381" />
<glyph unicode="&#x200a;" horiz-adv-x="105" />
<glyph unicode="&#x2010;" horiz-adv-x="829" d="M102 535v247h625v-247h-625z" />
<glyph unicode="&#x2011;" horiz-adv-x="829" d="M102 535v247h625v-247h-625z" />
<glyph unicode="&#x2012;" horiz-adv-x="829" d="M102 535v247h625v-247h-625z" />
<glyph unicode="&#x2013;" horiz-adv-x="819" d="M0 535v245h819v-245h-819z" />
<glyph unicode="&#x2014;" horiz-adv-x="1228" d="M0 535v245h1229v-245h-1229z" />
<glyph unicode="&#x2018;" horiz-adv-x="532" d="M123 938v254l123 313h153l-75 -311h86v-256h-287z" />
<glyph unicode="&#x2019;" horiz-adv-x="532" d="M123 1249v256h287v-254l-123 -313h-154l76 311h-86z" />
<glyph unicode="&#x201a;" horiz-adv-x="532" d="M123 0v256h287v-254l-123 -313h-154l76 311h-86z" />
<glyph unicode="&#x201c;" horiz-adv-x="901" d="M123 938v254l123 313h153l-75 -311h86v-256h-287zM492 938v254l122 313h154l-76 -311h86v-256h-286z" />
<glyph unicode="&#x201d;" horiz-adv-x="901" d="M123 1249v256h287v-254l-123 -313h-154l76 311h-86zM492 1249v256h287v-254l-123 -313h-154l76 311h-86z" />
<glyph unicode="&#x201e;" horiz-adv-x="901" d="M123 0v256h287v-254l-123 -313h-154l76 311h-86zM492 0v256h287v-254l-123 -313h-154l76 311h-86z" />
<glyph unicode="&#x2022;" horiz-adv-x="645" d="M123 471v379h399v-379h-399z" />
<glyph unicode="&#x2026;" horiz-adv-x="1628" d="M123 0v276h297v-276h-297zM666 0v276h297v-276h-297zM1208 0v276h297v-276h-297z" />
<glyph unicode="&#x202f;" horiz-adv-x="381" />
<glyph unicode="&#x2039;" horiz-adv-x="645" d="M82 668l256 419h205l-168 -425l147 -455h-205z" />
<glyph unicode="&#x203a;" horiz-adv-x="645" d="M102 1087h205l256 -419l-235 -461h-205l147 455z" />
<glyph unicode="&#x205f;" horiz-adv-x="476" />
<glyph unicode="&#x20ac;" d="M2 449l55 200h142v109h-197l55 200h158q23 150 72 246t115.5 151.5t146.5 77t162 21.5q111 0 186.5 -28.5t128.5 -67.5l-57 -215q-66 49 -123.5 71.5t-120.5 22.5q-35 0 -67.5 -12.5t-61.5 -44t-52.5 -86t-37.5 -136.5h414l-56 -200h-377v-109h349l-56 -200h-274 q14 -84 37.5 -135.5t52.5 -79t58.5 -37t56.5 -9.5q72 0 134 22.5t111 47.5v-219q-37 -23 -112.5 -46.5t-159.5 -23.5q-72 0 -145.5 19.5t-137 72t-112.5 145.5t-74 243h-213z" />
<glyph unicode="&#x2122;" horiz-adv-x="1630" d="M82 1321v154h856l152 -555l151 555h266v-811h-182v593l-162 -593h-149l-168 593v-593h-168v657h-205v-657h-192v657h-199z" />
<glyph unicode="&#xe000;" d="M0 0v1106h1106v-1106h-1106z" />
</font>
</defs>
</svg>
